<svg width="32" height="41" viewBox="0 0 32 41" fill="none" xmlns="http://www.w3.org/2000/svg">
<path d="M28.0094 19.0572C27.9762 18.9293 27.9097 18.8124 27.8165 18.7185C27.7234 18.6246 27.6071 18.5571 27.4794 18.5229L18.021 15.9885L22.8532 4.29756C22.9136 4.13997 22.9193 3.96661 22.8693 3.8054C22.8192 3.6442 22.7164 3.50452 22.5773 3.40886C22.4383 3.31321 22.271 3.26714 22.1026 3.27807C21.9342 3.289 21.7743 3.3563 21.6488 3.46913L4.74681 20.5387C4.65023 20.6301 4.57978 20.7456 4.54271 20.8733C4.50564 21.001 4.50329 21.1362 4.53592 21.2651C4.56854 21.394 4.63496 21.5119 4.72831 21.6065C4.82166 21.7012 4.93857 21.7692 5.06699 21.8037L14.384 24.3002L9.87601 36.0975C9.82036 36.2558 9.81925 36.4282 9.87285 36.5871C9.92644 36.7461 10.0317 36.8826 10.1718 36.9749C10.3119 37.0672 10.4789 37.11 10.6461 37.0964C10.8133 37.0829 10.9712 37.0138 11.0947 36.9002L27.806 19.7818C27.9009 19.6898 27.9698 19.5743 28.0055 19.447C28.0413 19.3197 28.0426 19.1852 28.0094 19.0572Z" fill="white"/>
</svg>
