<svg width="92" height="93" viewBox="0 0 92 93" fill="none" xmlns="http://www.w3.org/2000/svg">
<path fill-rule="evenodd" clip-rule="evenodd" d="M25.5181 24.9717L84.5122 52.3726L73.7801 75.4788L14.786 48.0779L6.01843 29.96L25.5181 24.9717Z" stroke="#FFCD6B" stroke-width="1.52077" stroke-linecap="round" stroke-linejoin="round"/>
<g clip-path="url(#clip0)">
<path d="M41.2764 44.7521L40.3968 46.6576L42.7441 47.7411C41.9814 48.5951 40.7026 48.8255 39.5013 48.2709C37.872 47.5188 37.203 45.7025 37.9615 44.0594C38.72 42.4163 40.5363 41.7473 42.1794 42.5058C43.1322 42.9456 43.7694 43.7422 43.9945 44.6334L46.2028 44.095C45.863 42.5814 44.7383 41.208 43.0814 40.4431C40.2094 39.1173 37.06 40.243 35.7661 43.0459C34.4722 45.8488 35.6308 48.9632 38.4889 50.2826C41.2781 51.5701 44.2777 50.4423 45.578 47.6256L45.9158 46.8938L41.2764 44.7521ZM47.9252 54.6386C50.093 55.6393 52.4553 54.8036 53.4241 52.7048C54.3929 50.6061 53.4967 48.2661 51.3289 47.2654C49.1611 46.2647 46.7988 47.1004 45.83 49.1992C44.8611 51.2979 45.7574 53.6379 47.9252 54.6386ZM48.8239 52.6917C47.8298 52.2328 47.4422 51.1494 47.9011 50.1553C48.36 49.1611 49.436 48.7533 50.4302 49.2123C51.4243 49.6712 51.8119 50.7546 51.353 51.7487C50.8941 52.7429 49.8181 53.1507 48.8239 52.6917ZM54.6517 53.6903L56.5295 54.5571L58.5022 50.6103L59.5858 48.263L57.4594 47.2814L56.3758 49.6287L54.6517 53.6903ZM54.0608 57.4375C54.8202 57.7881 55.6615 57.4897 56.0121 56.7302C56.3626 55.9708 56.0504 55.1232 55.291 54.7726C54.5178 54.4157 53.6702 54.7279 53.3196 55.4873C52.969 56.2467 53.2876 57.0805 54.0608 57.4375Z" fill="#FFCD6B"/>
</g>
<defs>
<clipPath id="clip0">
<rect width="27.3747" height="21.2914" fill="white" transform="translate(39.4114 33.9866) rotate(24.7794)"/>
</clipPath>
</defs>
</svg>
